<svg width="15" height="16" viewBox="0 0 15 16" fill="none" xmlns="http://www.w3.org/2000/svg">
<path d="M13.3333 0.5C13.7754 0.5 14.1993 0.675595 14.5118 0.988155C14.8244 1.30072 15 1.72464 15 2.16667V13.8333C15 14.2754 14.8244 14.6993 14.5118 15.0118C14.1993 15.3244 13.7754 15.5 13.3333 15.5H1.66667C1.22464 15.5 0.800716 15.3244 0.488155 15.0118C0.175595 14.6993 0 14.2754 0 13.8333V2.16667C0 1.72464 0.175595 1.30072 0.488155 0.988155C0.800716 0.675595 1.22464 0.5 1.66667 0.5H13.3333ZM12.9167 13.4167V9C12.9167 8.27949 12.6304 7.5885 12.121 7.07903C11.6115 6.56955 10.9205 6.28333 10.2 6.28333C9.49167 6.28333 8.66667 6.71667 8.26667 7.36667V6.44167H5.94167V13.4167H8.26667V9.30833C8.26667 8.66667 8.78333 8.14167 9.425 8.14167C9.73442 8.14167 10.0312 8.26458 10.25 8.48338C10.4688 8.70217 10.5917 8.99891 10.5917 9.30833V13.4167H12.9167ZM3.23333 5.13333C3.60464 5.13333 3.96073 4.98583 4.22328 4.72328C4.48583 4.46073 4.63333 4.10464 4.63333 3.73333C4.63333 2.95833 4.00833 2.325 3.23333 2.325C2.85982 2.325 2.5016 2.47338 2.23749 2.73749C1.97338 3.0016 1.825 3.35982 1.825 3.73333C1.825 4.50833 2.45833 5.13333 3.23333 5.13333ZM4.39167 13.4167V6.44167H2.08333V13.4167H4.39167Z" fill="#1C86BC"/>
</svg>
