<svg width="24" height="24" viewBox="0 0 24 24" fill="none" xmlns="http://www.w3.org/2000/svg">
<path fill-rule="evenodd" clip-rule="evenodd" d="M14.1789 14.661C16.1229 15.6064 18.1642 17.3422 18.9955 19.349C17.929 20.2133 17.7904 20.321 16.537 21.375C15.3298 19.0511 13.8677 17.7702 11.869 17.2573C10.6953 18.7698 8.78489 20.5361 5.79719 21.3516C5.13127 19.9423 4.94984 19.544 4.50006 18.4806C6.88974 17.9268 7.76043 17.1713 8.93028 14.9306C8.84636 12.2111 9.54538 9.53695 11.2891 8.46684C12.1958 8.76425 13.6955 9.65859 14.1221 9.79406C14.0617 10.0702 14.2604 10.3838 14.9925 10.5439C15.5477 10.6657 16.8544 10.8574 18.1154 9.71345C18.8886 10.9022 19.4999 12.051 19.4999 12.051C19.4999 12.051 17.0866 14.4477 14.2302 13.6951C14.2111 14.0675 14.1971 14.1863 14.1789 14.661V14.661ZM14.5179 7.95841C13.058 7.95841 11.8375 6.76456 11.8375 5.2917C11.8375 3.81897 13.058 2.625 14.5179 2.625C15.9767 2.625 17.2163 3.81897 17.2163 5.2917C17.2163 6.76456 15.9767 7.95841 14.5179 7.95841Z" fill="#272E41"/>
</svg>
