<svg width="24" height="24" viewBox="0 0 24 24" fill="none" xmlns="http://www.w3.org/2000/svg">
<path fill-rule="evenodd" clip-rule="evenodd" d="M20.68 16.7231C20.68 17.7201 19.781 17.3561 19.429 17.3561H18.123C18.99 17.3561 18.74 17.3541 18.5 17.3511V18.9251H3.875C3.857 19.2371 3.845 20.2671 4.388 20.8661C4.664 21.1711 5.58 21.3251 5.558 21.3251H17.41C17.451 21.3251 17.484 21.2931 17.484 21.2521V20.4051H5.498V19.8451L18.5 19.8541V21.2521C18.5 21.6011 17.762 21.8861 17.41 21.8861H5.559C4.89 21.8861 4.354 21.6681 3.966 21.2391C3.179 20.3681 3.3 18.9591 3.317 18.8031V1.88306H18.49V3.11906C18.74 3.11506 18.99 3.11306 18.123 3.11306H19.428C19.781 3.11306 20.68 3.39806 20.68 3.74706V7.48706C20.68 7.65406 20.2 7.81306 19.887 7.92906C20.2 8.46006 20.68 8.20406 20.68 8.37106V12.1121C20.68 12.2741 20.4 12.4301 19.893 12.5461C20.4 12.6631 20.68 12.8181 20.68 12.9811V16.7231ZM11.541 6.53806C8.943 6.53806 7.269 8.60406 7.269 10.9941C7.269 13.2211 8.897 14.6131 10.817 14.6131C11.601 14.6131 12.256 14.4861 12.9 14.1501L12.712 13.6501C12.233 13.9171 11.612 14.5701 10.944 14.5701C9.213 14.5701 7.937 12.8611 7.937 10.9241C7.937 8.56906 9.541 7.71006 11.448 7.71006C13.263 7.71006 14.281 8.27806 14.281 9.96106C14.281 11.3071 13.615 12.9601 13.17 12.8401C12.631 12.7201 12.49 11.6671 12.666 10.7841L13.64 8.68506C12.76 8.54506 12.315 8.44106 11.811 8.44106C10.184 8.44106 9.37 9.75206 9.37 11.1911C9.37 12.1071 9.622 12.6521 10.301 12.6521C11.3 12.6521 11.541 12.3161 11.952 11.6311H11.998C11.962 12.3401 12.395 12.6521 12.865 12.6521C13.965 12.6521 14.948 11.6311 14.949 9.89206C14.949 7.95406 13.579 6.53806 11.541 6.53806ZM19.503 3.74706C19.503 3.70606 19.47 3.67306 19.428 3.67306H18.123C18.81 3.67306 18.49 3.70606 18.49 3.74706V7.48706C18.49 7.52806 18.81 7.56106 18.123 7.56106H19.428C19.47 7.56106 19.503 7.52806 19.503 7.48706V3.74706ZM19.503 8.37106C19.503 8.33006 19.47 8.29806 19.428 8.29806H18.123C18.81 8.29806 18.49 8.33006 18.49 8.37106V12.1121C18.49 12.1521 18.81 12.1851 18.123 12.1851H19.428C19.47 12.1851 19.503 12.1521 19.503 12.1121V8.37106ZM19.503 12.9811C19.503 12.9401 19.47 12.9081 19.428 12.9081H18.123C18.81 12.9081 18.49 12.9401 18.49 12.9811V16.7231C18.49 16.7621 18.81 16.7961 18.123 16.7961H19.428C19.47 16.7961 19.503 16.7621 19.503 16.7231V12.9811ZM10.581 12.2701C10.67 12.2701 9.809 11.6551 9.809 11.1451C9.809 10.1901 10.64 9.56006 11.67 9.55006C11.94 9.55006 12.139 9.10106 12.256 9.13706L12.1 10.4481C11.881 11.1671 11.261 12.2701 10.581 12.2701Z" fill="#272E41"/>
</svg>
