<svg width="24" height="24" viewBox="0 0 24 24" fill="none" xmlns="http://www.w3.org/2000/svg">
<path d="M4.51208 18.6244V11.8296C4.51208 7.6693 7.86139 4.26775 12.0396 4.26775C16.2 4.26775 19.5754 7.65193 19.5754 11.8296C19.5754 15.8332 16.4793 19.113 12.5539 19.3745C11.9696 19.4182 11.4638 19.3398 10.9752 18.9821C10.4694 18.5985 10.1379 17.9879 10.1379 17.3073C10.1379 16.217 11.0015 15.3102 12.0831 15.2405C13.0775 15.1704 13.8536 14.8913 14.5515 14.1412C15.127 13.5222 15.4673 12.7022 15.4673 11.804C15.4673 9.90232 13.9322 8.35834 12.0307 8.35834C11.2281 8.35834 10.4955 8.63766 9.91095 9.09118C8.82065 9.94605 8.61149 10.888 8.61149 12.17V21.4156C9.66688 21.7906 10.8097 22 11.9958 22C17.5255 22 22 17.5254 22 11.9956C22 6.4744 17.5255 2 11.9958 2C6.47445 2 2 6.4744 2 11.9956C1.99994 14.5424 2.95066 16.8627 4.51208 18.6244Z" fill="#272E41"/>
</svg>
