<svg width="24" height="24" viewBox="0 0 24 24" fill="none" xmlns="http://www.w3.org/2000/svg">
<g clip-path="url(#clip0_606_33414)">
<path fill-rule="evenodd" clip-rule="evenodd" d="M21.84 13.4629C21.7756 13.4629 21.7171 13.4612 21.6579 13.4612V13.4629H19.3165C18.3471 13.4629 17.561 12.6768 17.561 11.7068C17.561 10.7375 18.3471 9.95072 19.3165 9.95072H21.6579V10.1269C21.7171 10.0684 21.7756 9.95072 21.84 9.95072C22.646 9.95072 23.5961 10.7375 23.5961 11.7068C23.5961 12.6768 22.646 13.4629 21.84 13.4629ZM19.8164 5.9357L18.2178 7.53433C18.3629 7.60223 18.1182 7.67014 18.0568 7.73101C17.407 8.38135 16.3528 8.38135 15.7024 7.73101C15.0527 7.59228 15.0527 6.0276 15.7024 5.37726C15.7352 5.34448 15.7733 5.79521 16.0976 5.49667L15.7967 5.39131L17.7366 3.80496L17.6839 3.64692C17.9824 3.49062 17.6271 3.45257 17.6599 3.41979C18.3102 2.77004 19.7854 2.77004 20.0142 3.41979C20.664 4.07013 20.664 5.12379 20.0142 5.77355C20.4059 5.8356 19.8843 6.16984 19.8164 5.9357ZM18.0468 15.7125C18.0796 15.7458 18.1036 15.7839 18.1335 15.9455L18.144 16.0976L19.9727 17.684L19.8989 17.7894C20.2127 18.082 19.9715 17.6372 20.0043 17.6699C20.654 18.3203 20.654 19.885 20.0043 20.0237C19.6859 20.674 18.2997 20.674 17.6499 20.0237C17.8361 19.9628 17.5387 19.8949 17.489 19.827L15.8909 18.229C15.9805 18.4684 15.7539 18.1283 15.6925 18.0668C15.0427 17.4171 15.0427 16.3628 15.6925 15.7125C16.3428 15.0627 17.3965 15.0627 18.0468 15.7125ZM11.7951 23.5025C10.7461 23.5025 10.039 22.6374 10.039 21.7464C10.039 21.9513 10.0566 21.6557 10.0566 21.6493H10.039V19.3072C10.039 18.3378 10.7461 17.5517 11.7951 17.5517C12.686 17.5517 13.5512 18.3378 13.5512 19.3072V21.6493H13.5337C13.5337 21.6557 13.5512 21.9513 13.5512 21.7464C13.5512 22.6374 12.686 23.5025 11.7951 23.5025ZM11.7951 5.94155C10.7461 5.94155 10.039 5.07638 10.039 4.18545C10.039 4.33179 10.0566 4.09413 10.0566 4.08828H10.039V1.74682C10.039 0.776866 10.7461 0.0878906 11.7951 0.0878906C12.686 0.0878906 13.5512 0.776866 13.5512 1.74682V4.08828H13.5337C13.5337 4.09413 13.5512 4.33179 13.5512 4.18545C13.5512 5.07638 12.686 5.94155 11.7951 5.94155ZM7.52312 18.2284L5.92566 19.8258C6.0761 19.8943 5.82556 19.9622 5.7641 20.0237C5.11434 20.674 4.0601 20.674 3.40976 20.0237C2.76 19.885 2.76 18.3203 3.40976 17.6699C3.44254 17.6372 3.48058 18.082 3.80488 17.7894L3.50458 17.684L5.4439 16.0976L5.39122 15.9396C5.68976 15.7839 5.33444 15.7458 5.36722 15.7125C6.01756 15.0627 7.49268 15.0627 7.72156 15.7125C8.37132 16.3628 8.37132 17.4171 7.72156 18.0668C8.11317 18.1283 7.59161 18.4684 7.52312 18.2284ZM5.35727 7.73101C5.54927 7.67014 5.24663 7.60282 5.19688 7.53492L3.59766 5.93511C3.68195 6.16984 3.46127 5.8356 3.3998 5.77355C2.75005 5.12379 2.75005 4.07013 3.3998 3.41979C4.05015 2.77004 5.1038 2.77004 5.75415 3.41979C5.78693 3.45257 5.81093 3.49062 5.84078 3.64692L5.85132 3.80496L7.68 5.39131L7.60624 5.49667C7.92 5.78935 7.67883 5.34448 7.71102 5.37726C8.36136 6.0276 8.36136 7.59228 7.71102 7.73101C7.39317 8.38135 6.00702 8.38135 5.35727 7.73101ZM4.09698 10.1269C4.1561 10.0684 4.21463 9.95072 4.27902 9.95072C5.08566 9.95072 6.03512 10.7375 6.03512 11.7068C6.03512 12.6768 5.08566 13.4629 4.27902 13.4629C4.21463 13.4629 4.1561 13.4612 4.09698 13.4612V13.4629H1.75551C0.786146 13.4629 0 12.6768 0 11.7068C0 10.7375 0.786146 9.95072 1.75551 9.95072H4.09698V10.1269Z" fill="#DDDFE3"/>
<path d="M21.84 13.4629C21.7756 13.4629 21.7171 13.4612 21.6579 13.4612V13.4629H19.3165C18.3471 13.4629 17.561 12.6768 17.561 11.7068C17.561 10.7375 18.3471 9.95072 19.3165 9.95072H21.6579V10.1269C21.7171 10.0684 21.7756 9.95072 21.84 9.95072C22.646 9.95072 23.5961 10.7375 23.5961 11.7068C23.5961 12.6768 22.646 13.4629 21.84 13.4629ZM19.8164 5.9357L18.2178 7.53433C18.3629 7.60223 18.1182 7.67014 18.0568 7.73101C17.407 8.38135 16.3528 8.38135 15.7024 7.73101C15.0527 7.59228 15.0527 6.0276 15.7024 5.37726C16.2302 4.84948 17.451 3.62872 17.6599 3.41979C18.3102 2.77004 19.7854 2.77004 20.0142 3.41979C20.664 4.07013 20.664 5.12379 20.0142 5.77355C20.4059 5.8356 19.8843 6.16984 19.8164 5.9357ZM18.0468 15.7125C18.0796 15.7458 18.1036 15.7839 18.1335 15.9455L18.144 16.0976L19.9727 17.684L19.8989 17.7894C20.2127 18.082 19.9715 17.6372 20.0043 17.6699C20.654 18.3203 20.654 19.885 20.0043 20.0237C19.6859 20.674 18.2997 20.674 17.6499 20.0237C17.8361 19.9628 17.5387 19.8949 17.489 19.827L15.8909 18.229C15.9805 18.4684 15.7539 18.1283 15.6925 18.0668C15.0427 17.4171 15.0427 16.3628 15.6925 15.7125C16.3428 15.0627 17.3965 15.0627 18.0468 15.7125ZM11.7951 23.5025C10.7461 23.5025 10.039 22.6374 10.039 21.7464C10.039 21.9513 10.0566 21.6557 10.0566 21.6493H10.039V19.3072C10.039 18.3378 10.7461 17.5517 11.7951 17.5517C12.686 17.5517 13.5512 18.3378 13.5512 19.3072V21.6493H13.5337C13.5337 21.6557 13.5512 21.9513 13.5512 21.7464C13.5512 22.6374 12.686 23.5025 11.7951 23.5025ZM11.7951 5.94155C10.7461 5.94155 10.039 5.07638 10.039 4.18545C10.039 4.28501 10.039 3.65014 10.039 1.74682C10.039 0.776866 10.7461 0.0878906 11.7951 0.0878906C12.686 0.0878906 13.5512 0.776866 13.5512 1.74682C13.5512 3.65014 13.5512 4.28501 13.5512 4.18545C13.5512 5.07638 12.686 5.94155 11.7951 5.94155ZM7.52312 18.2284L5.92566 19.8258C6.0761 19.8943 5.82556 19.9622 5.7641 20.0237C5.11434 20.674 4.0601 20.674 3.40976 20.0237C2.76 19.885 2.76 18.3203 3.40976 17.6699C3.44254 17.6372 3.48058 18.082 3.80488 17.7894L3.50458 17.684L5.4439 16.0976L5.39122 15.9396C5.68976 15.7839 5.33444 15.7458 5.36722 15.7125C6.01756 15.0627 7.49268 15.0627 7.72156 15.7125C8.37132 16.3628 8.37132 17.4171 7.72156 18.0668C8.11317 18.1283 7.59161 18.4684 7.52312 18.2284ZM5.35727 7.73101C5.54927 7.67014 5.24663 7.60282 5.19688 7.53492L3.59766 5.93511C3.68195 6.16984 3.46127 5.8356 3.3998 5.77355C2.75005 5.12379 2.75005 4.07013 3.3998 3.41979C4.05015 2.77004 5.1038 2.77004 5.75415 3.41979C5.78693 3.45257 5.81093 3.49062 5.84078 3.64692L5.85132 3.80496L7.68 5.39131L7.60624 5.49667C7.92 5.78935 7.67883 5.34448 7.71102 5.37726C8.36136 6.0276 8.36136 7.59228 7.71102 7.73101C7.39317 8.38135 6.00702 8.38135 5.35727 7.73101ZM4.09697 10.1269C4.1561 10.0684 4.21463 9.95072 4.27902 9.95072C5.08566 9.95072 6.03512 10.7375 6.03512 11.7068C6.03512 12.6768 5.08566 13.4629 4.27902 13.4629C4.21463 13.4629 4.1561 13.4612 4.09697 13.4612V13.4629H1.75551C0.786146 13.4629 0 12.6768 0 11.7068C0 10.7375 0.786146 9.95072 1.75551 9.95072H4.09697V10.1269Z" fill="url(#paint0_linear_606_33414)"/>
</g>
<defs>
<linearGradient id="paint0_linear_606_33414" x1="0" y1="0.0878906" x2="22.7684" y2="6.23595" gradientUnits="userSpaceOnUse">
<stop stop-color="#B3BAC4" stop-opacity="0.5"/>
<stop offset="1" stop-opacity="0"/>
</linearGradient>
<clipPath id="clip0_606_33414">
<rect width="24" height="24" fill="white"/>
</clipPath>
</defs>
</svg>
