<?xml version="1.0" encoding="utf-8"?>
<!-- Generator: Adobe Illustrator 24.3.0, SVG Export Plug-In . SVG Version: 6.00 Build 0)  -->
<svg version="1.1" id="Layer_1" xmlns="http://www.w3.org/2000/svg" xmlns:xlink="http://www.w3.org/1999/xlink" x="0px" y="0px"
	 viewBox="0 0 256 256" style="enable-background:new 0 0 256 256;" xml:space="preserve">
<style type="text/css">
	.st0{fill:#ED1C24;}
</style>
<g>
	<path class="st0" d="M222.2,67.9c-2.9-1.2-5.9-1.6-9-1.3c-5.5,0.5-10.4,2.4-15.1,5.3c-7.6,4.7-13.5,11.1-18.5,18.5
		c-4.7,7-8.8,14.3-12.6,21.8c-0.2,0.4-0.8,1-1.2,1c-2.6,0.2-5.2,0.3-7.8,0.5c-6.4,0.5-12.7,1-19,1.7c-5.6,0.6-11.1,1.3-16.8,1.9
		c0.1-0.3,0.2-0.5,0.4-0.8c3.9-6,7.6-12.2,11.7-18c6.4-9,14.1-16.6,23.9-21.8c0.7-0.4,1.3-0.9,1.9-1.4c1.3-1.3,1.4-2.7-0.1-3.8
		c-1.3-1-2.8-1.7-4.3-2.3c-4.7-1.7-9.6-2.2-14.6-2.5c-11.1-0.6-22.1,0.3-33,2.7C96.7,72,86,75.9,76.2,82.3
		c-7.7,5-14.2,11.3-18.9,19.3c-3.9,6.5-1.6,15.8,4.8,19.7c3.5,2.2,7.4,2.4,11.3,1.8c2.5-0.4,5-0.9,7.1-2.5c4-3,3.6-6.9-1-8.7
		c-3-1.2-3.7-3.5-3.2-6.2c0.8-3.8,2.9-6.8,5.3-9.6C87.2,90,94,85.8,101.4,82.5c13.2-5.8,27-7.8,41.3-8c0.1,0,0.2,0.1,0.1,0.1
		c-2.9,2.1-5.9,4-8.7,6.2c-2.8,2.2-5.5,4.6-8,7.1c-9.7,9.5-17.5,20.5-24.3,32.2c-0.3,0.5-0.9,0.9-1.5,1.1
		c-6.3,1.8-12.6,3.3-18.8,5.3c-3.2,1-6.2,2.6-9.1,4.3c-1,0.6-1.8,2-2.2,3.2c-0.7,2,0.4,3.3,2.5,3.5c0.7,0.1,1.5,0.2,2.2,0.1
		c3.9-0.6,7.8-1.2,11.7-2c2.4-0.5,4.8-1.1,7.5-1.7c-1.7,2.6-3.1,4.9-4.6,7.2c-4.3,6.4-8.9,12.5-14.8,17.5
		c-5.2,4.3-11.1,6.7-18.1,5.7c-5.5-0.8-9.1-4.4-9.5-9.9c-0.2-2-0.1-4.1-0.4-6.1c-0.3-1.9-1.8-2.7-3.6-2.1c-1,0.3-2.1,0.8-3,1.4
		c-7.5,4.7-11.1,13.1-9.5,21.9c1,5.3,2.9,10.2,7.1,13.8c5.8,4.9,12.6,5.8,19.8,4.9c7-0.8,13.3-3.5,19.3-7.2
		c10.6-6.6,18.7-15.5,24.9-26.2c4.7-8,9-16.4,13.4-24.5c0.4-0.7,0.8-1.1,1.6-1.2c4.6-0.5,9.3-1.3,13.9-1.5c9.5-0.4,19-0.6,28.5-0.9
		c0.4,0,0.9,0,1.5,0c-5.9,12.9-10.4,26.2-17.5,38.3c-2-1.5-3.7-3-5.6-4.3c-5.6-3.8-11.6-5.9-18.5-4.7c-6.6,1.2-11.3,4.9-13.2,11.4
		c-2,6.5-0.3,12.3,4.7,16.9c5.1,4.6,11.2,5.7,17.8,4.8c6.8-0.9,12.7-3.7,18-8.1c0.5-0.4,0.9-0.6,1.5-0.3c12.1,5.9,24.9,7.4,38.1,4.7
		c9-1.8,16.9-5.8,23.2-12.7c6.2-6.8,8.7-14.7,7.2-23.7c-1.1-6.4-5.6-9.9-11.8-9.6c-5,0.3-7.5,3.4-6.6,8.3c0.2,0.9,0.5,1.9,0.9,2.7
		c0.8,1.9,0.9,3.9,0.4,5.9c-1.2,4.3-3.8,7.8-7.1,10.6c-9.1,7.9-19.4,11.4-31.4,8.7c-2.2-0.5-4.3-1.5-6.3-2.1c3.4-5,6.8-9.7,9.8-14.7
		c7.9-12.8,14.4-26.5,20.5-40.2c4.4-9.8,8.8-19.7,14.2-29c2.4-4.1,4.9-8.1,8.3-11.3c1-1,2.3-1.7,3.6-2.4c1.1-0.6,2.4-0.5,3.4,0.4
		c0.9,0.8,0.7,2,0.5,3c-0.4,1.7-0.9,3.4-1.2,5.1c-0.3,1.8-0.2,3.5,1.1,4.9c3.3,3.4,10.1,3.1,12.7-0.9c1.2-1.8,2-4,2.5-6.2
		C230.9,76,228,70.3,222.2,67.9z M135.4,174.2c-2.7,3.7-6.5,5.3-11,5.6c-2,0.1-3.9-0.4-5.5-1.6c-2.6-1.9-3.7-5-2.8-8
		c0.9-2.9,3.6-4.9,6.8-5.1c3.2-0.2,5.9,1,8.2,3c1.6,1.4,2.9,3,4.3,4.5C136,173.1,135.9,173.6,135.4,174.2z"/>
</g>
</svg>
