<svg width="21" height="21" viewBox="0 0 21 21" fill="none" xmlns="http://www.w3.org/2000/svg">
<path d="M8.08333 0.5C10.0946 0.5 12.0234 1.29896 13.4456 2.72111C14.8677 4.14326 15.6667 6.07211 15.6667 8.08333C15.6667 9.96167 14.9783 11.6883 13.8467 13.0183L14.1617 13.3333H15.0833L20.9167 19.1667L19.1667 20.9167L13.3333 15.0833V14.1617L13.0183 13.8467C11.6883 14.9783 9.96167 15.6667 8.08333 15.6667C6.07211 15.6667 4.14326 14.8677 2.72111 13.4456C1.29896 12.0234 0.5 10.0946 0.5 8.08333C0.5 6.07211 1.29896 4.14326 2.72111 2.72111C4.14326 1.29896 6.07211 0.5 8.08333 0.5V0.5ZM8.08333 2.83333C5.16667 2.83333 2.83333 5.16667 2.83333 8.08333C2.83333 11 5.16667 13.3333 8.08333 13.3333C11 13.3333 13.3333 11 13.3333 8.08333C13.3333 5.16667 11 2.83333 8.08333 2.83333Z" fill="white"/>
</svg>
