<svg xmlns="http://www.w3.org/2000/svg" width="24" height="24" fill="none" viewBox="0 0 24 24">
  <path fill="#272E41" d="M4.512 18.624V11.83c0-4.16 3.35-7.562 7.528-7.562 4.16 0 7.535 3.384 7.535 7.562 0 4.003-3.096 7.283-7.021 7.545-.584.043-1.09-.035-1.579-.393a2.106 2.106 0 0 1-.837-1.675c0-1.09.864-1.997 1.945-2.066.995-.07 1.77-.35 2.469-1.1a3.413 3.413 0 0 0 .915-2.337 3.44 3.44 0 0 0-3.436-3.446c-.803 0-1.536.28-2.12.733-1.09.855-1.3 1.797-1.3 3.079v9.246c1.056.375 2.199.584 3.385.584A9.999 9.999 0 0 0 22 11.996C22 6.474 17.526 2 11.996 2A9.994 9.994 0 0 0 2 11.996c0 2.546.95 4.867 2.512 6.628Z"/>
</svg>
