<svg xmlns="http://www.w3.org/2000/svg" width="24" height="24" fill="none" viewBox="0 0 24 24">
  <path fill="#DDDFE3" fill-rule="evenodd" d="m21.84 13.463-.182-.002v.002h-2.341a1.756 1.756 0 0 1 0-3.512h2.34v.176c.06-.059.119-.176.183-.176.806 0 1.756.787 1.756 1.756 0 .97-.95 1.756-1.756 1.756Zm-2.024-7.527-1.598 1.598c.145.068-.1.136-.161.197-.65.65-1.704.65-2.355 0-.65-.139-.65-1.703 0-2.354.033-.033.071.418.396.12l-.301-.106 1.94-1.586-.053-.158c.298-.156-.057-.194-.024-.227.65-.65 2.125-.65 2.354 0 .65.65.65 1.704 0 2.354.392.062-.13.396-.198.162Zm-1.77 9.777c.034.033.058.07.088.232l.01.153 1.829 1.586-.074.105c.314.293.072-.152.105-.12.65.651.65 2.216 0 2.355-.318.65-1.704.65-2.354 0 .186-.061-.111-.13-.161-.197l-1.598-1.598c.09.24-.137-.1-.198-.162a1.665 1.665 0 0 1 2.354-2.354Zm-6.25 7.79c-1.05 0-1.757-.866-1.757-1.757 0 .205.018-.09.018-.097h-.018v-2.342c0-.97.707-1.755 1.756-1.755.891 0 1.756.786 1.756 1.755v2.342h-.017c0 .007.017.302.017.097 0 .891-.865 1.757-1.756 1.757Zm0-17.561c-1.05 0-1.757-.866-1.757-1.757 0 .147.018-.09.018-.097h-.018V1.747c0-.97.707-1.66 1.756-1.66.891 0 1.756.69 1.756 1.66v2.341h-.017c0 .006.017.244.017.097 0 .891-.865 1.757-1.756 1.757ZM7.522 18.228l-1.597 1.598c.15.068-.1.136-.162.198-.65.65-1.704.65-2.354 0-.65-.139-.65-1.704 0-2.354.033-.033.07.412.395.12l-.3-.106 1.939-1.586-.053-.158c.299-.156-.057-.194-.024-.227.65-.65 2.126-.65 2.355 0 .65.65.65 1.704 0 2.354.391.061-.13.401-.199.161ZM5.357 7.731c.192-.06-.11-.128-.16-.196l-1.6-1.6c.085.235-.136-.1-.197-.161A1.665 1.665 0 0 1 5.754 3.42c.033.033.057.07.087.227l.01.158L7.68 5.391l-.074.106c.314.292.073-.153.105-.12.65.65.65 2.215 0 2.354-.318.65-1.704.65-2.354 0Zm-1.26 2.396c.06-.059.118-.176.182-.176.807 0 1.756.787 1.756 1.756 0 .97-.95 1.756-1.756 1.756l-.182-.002v.002H1.756a1.756 1.756 0 0 1 0-3.512h2.341v.176Z" clip-rule="evenodd"/>
  <path fill="url(#a)" d="m21.84 13.463-.182-.002v.002h-2.341a1.756 1.756 0 0 1 0-3.512h2.34v.176c.06-.059.119-.176.183-.176.806 0 1.756.787 1.756 1.756 0 .97-.95 1.756-1.756 1.756Zm-2.024-7.527-1.598 1.598c.145.068-.1.136-.161.197-.65.65-1.704.65-2.355 0-.65-.139-.65-1.703 0-2.354L17.66 3.42c.65-.65 2.125-.65 2.354 0 .65.65.65 1.704 0 2.354.392.062-.13.396-.198.162Zm-1.77 9.777c.034.033.058.07.088.232l.01.153 1.829 1.586-.074.105c.314.293.072-.152.105-.12.65.651.65 2.216 0 2.355-.318.65-1.704.65-2.354 0 .186-.061-.111-.13-.161-.197l-1.598-1.598c.09.24-.137-.1-.198-.162a1.665 1.665 0 0 1 2.354-2.354Zm-6.25 7.79c-1.05 0-1.757-.866-1.757-1.757 0 .205.018-.09.018-.097h-.018v-2.342c0-.97.707-1.755 1.756-1.755.891 0 1.756.786 1.756 1.755v2.342h-.017c0 .007.017.302.017.097 0 .891-.865 1.757-1.756 1.757Zm0-17.561c-1.05 0-1.757-.866-1.757-1.757V1.747c0-.97.707-1.66 1.756-1.66.891 0 1.756.69 1.756 1.66v2.438c0 .891-.865 1.757-1.756 1.757ZM7.522 18.228l-1.597 1.598c.15.068-.1.136-.162.198-.65.65-1.704.65-2.354 0-.65-.139-.65-1.704 0-2.354.033-.033.07.412.395.12l-.3-.106 1.939-1.586-.053-.158c.299-.156-.057-.194-.024-.227.65-.65 2.126-.65 2.355 0 .65.65.65 1.704 0 2.354.391.061-.13.401-.199.161ZM5.357 7.731c.192-.06-.11-.128-.16-.196l-1.6-1.6c.085.235-.136-.1-.197-.161A1.665 1.665 0 0 1 5.754 3.42c.033.033.057.07.087.227l.01.158L7.68 5.391l-.074.106c.314.292.073-.153.105-.12.65.65.65 2.215 0 2.354-.318.65-1.704.65-2.354 0Zm-1.26 2.396c.06-.059.118-.176.182-.176.807 0 1.756.787 1.756 1.756 0 .97-.95 1.756-1.756 1.756l-.182-.002v.002H1.756a1.756 1.756 0 0 1 0-3.512h2.341v.176Z"/>
  <defs>
    <linearGradient id="a" x1="0" x2="22.768" y1=".088" y2="6.236" gradientUnits="userSpaceOnUse">
      <stop stop-color="#B3BAC4" stop-opacity=".5"/>
      <stop offset="1" stop-opacity="0"/>
    </linearGradient>
  </defs>
</svg>
