<svg width="19" height="12" viewBox="0 0 19 12" fill="none" xmlns="http://www.w3.org/2000/svg">
<path d="M18.7666 5.16663H17.1V3.49996H15.4333V5.16663H13.7666V6.83329H15.4333V8.49996H17.1V6.83329H18.7666V5.16663ZM6.26662 5.16663V7.16663H9.59995C9.43329 7.99996 8.59995 9.66663 6.26662 9.66663C4.26662 9.66663 2.68329 7.99996 2.68329 5.99996C2.68329 3.99996 4.26662 2.33329 6.26662 2.33329C7.43329 2.33329 8.18329 2.83329 8.59995 3.24996L10.1833 1.74996C9.18329 0.749959 7.84995 0.166626 6.26662 0.166626C3.01662 0.166626 0.433289 2.74996 0.433289 5.99996C0.433289 9.24996 3.01662 11.8333 6.26662 11.8333C9.59995 11.8333 11.85 9.49996 11.85 6.16663C11.85 5.74996 11.85 5.49996 11.7666 5.16663H6.26662Z" fill="white"/>
</svg>
