<svg width="19" height="15" viewBox="0 0 19 15" fill="none" xmlns="http://www.w3.org/2000/svg">
<path d="M18.1167 2.00004C17.475 2.29171 16.7833 2.48337 16.0667 2.57504C16.8 2.13337 17.3667 1.43337 17.6333 0.591707C16.9417 1.00837 16.175 1.30004 15.3667 1.46671C14.7083 0.750041 13.7833 0.333374 12.7333 0.333374C10.775 0.333374 9.17502 1.93337 9.17502 3.90837C9.17502 4.19171 9.20835 4.46671 9.26668 4.72504C6.30002 4.57504 3.65835 3.15004 1.90002 0.991707C1.59168 1.51671 1.41668 2.13337 1.41668 2.78337C1.41668 4.02504 2.04168 5.12504 3.00835 5.75004C2.41668 5.75004 1.86668 5.58337 1.38335 5.33337C1.38335 5.33337 1.38335 5.33337 1.38335 5.35837C1.38335 7.09171 2.61668 8.54171 4.25002 8.86671C3.95002 8.95004 3.63335 8.99171 3.30835 8.99171C3.08335 8.99171 2.85835 8.96671 2.64168 8.92504C3.09168 10.3334 4.40002 11.3834 5.97502 11.4084C4.75835 12.375 3.21668 12.9417 1.53335 12.9417C1.25002 12.9417 0.966683 12.925 0.68335 12.8917C2.26668 13.9084 4.15002 14.5 6.16668 14.5C12.7333 14.5 16.3417 9.05004 16.3417 4.32504C16.3417 4.16671 16.3417 4.01671 16.3333 3.85837C17.0333 3.35837 17.6333 2.72504 18.1167 2.00004Z" fill="white"/>
</svg>
