<svg width="18" height="18" viewBox="0 0 18 18" fill="none" xmlns="http://www.w3.org/2000/svg">
<path d="M9.20003 0.699951C4.6167 0.699951 0.866699 4.44162 0.866699 9.04995C0.866699 13.2166 3.9167 16.6749 7.90003 17.2999V11.4666H5.78337V9.04995H7.90003V7.20828C7.90003 5.11662 9.1417 3.96662 11.05 3.96662C11.9584 3.96662 12.9084 4.12495 12.9084 4.12495V6.18328H11.8584C10.825 6.18328 10.5 6.82495 10.5 7.48328V9.04995H12.8167L12.4417 11.4666H10.5V17.2999C12.4637 16.9898 14.2519 15.9879 15.5416 14.475C16.8314 12.9621 17.5378 11.038 17.5334 9.04995C17.5334 4.44162 13.7834 0.699951 9.20003 0.699951Z" fill="white"/>
</svg>
