<svg width="16" height="16" viewBox="0 0 16 16" fill="none" xmlns="http://www.w3.org/2000/svg">
<path d="M13.6333 0.5C14.0753 0.5 14.4993 0.675595 14.8118 0.988155C15.1244 1.30072 15.3 1.72464 15.3 2.16667V13.8333C15.3 14.2754 15.1244 14.6993 14.8118 15.0118C14.4993 15.3244 14.0753 15.5 13.6333 15.5H1.96665C1.52463 15.5 1.1007 15.3244 0.788143 15.0118C0.475582 14.6993 0.299988 14.2754 0.299988 13.8333V2.16667C0.299988 1.72464 0.475582 1.30072 0.788143 0.988155C1.1007 0.675595 1.52463 0.5 1.96665 0.5H13.6333ZM13.2167 13.4167V9C13.2167 8.27949 12.9304 7.5885 12.421 7.07903C11.9115 6.56955 11.2205 6.28333 10.5 6.28333C9.79165 6.28333 8.96665 6.71667 8.56665 7.36667V6.44167H6.24165V13.4167H8.56665V9.30833C8.56665 8.66667 9.08332 8.14167 9.72499 8.14167C10.0344 8.14167 10.3312 8.26458 10.5499 8.48338C10.7687 8.70217 10.8917 8.99891 10.8917 9.30833V13.4167H13.2167ZM3.53332 5.13333C3.90462 5.13333 4.26072 4.98583 4.52327 4.72328C4.78582 4.46073 4.93332 4.10464 4.93332 3.73333C4.93332 2.95833 4.30832 2.325 3.53332 2.325C3.15981 2.325 2.80159 2.47338 2.53748 2.73749C2.27337 3.0016 2.12499 3.35982 2.12499 3.73333C2.12499 4.50833 2.75832 5.13333 3.53332 5.13333ZM4.69165 13.4167V6.44167H2.38332V13.4167H4.69165Z" fill="white"/>
</svg>
