<svg width="15" height="17" viewBox="0 0 15 17" fill="none" xmlns="http://www.w3.org/2000/svg">
<path d="M14.0517 0.69165C14.1792 0.69165 14.3075 0.75665 14.3717 0.820817C14.4032 0.879938 14.4197 0.945904 14.4197 1.0129C14.4197 1.0799 14.4032 1.14586 14.3717 1.20498L9.30749 10.18L12.5125 16.0766C12.5441 16.1359 12.5607 16.202 12.5607 16.2692C12.5607 16.3363 12.5441 16.4024 12.5125 16.4616C12.4249 16.5418 12.3112 16.5874 12.1925 16.59H9.88416C9.56416 16.59 9.37166 16.3333 9.24332 16.1408L5.97416 10.1792C6.16666 9.92332 11.1025 1.14165 11.1025 1.14165C11.2308 0.885817 11.4233 0.693317 11.7442 0.693317H14.0517V0.69165ZM4.43582 3.83332C4.75666 3.83332 4.94832 4.08998 5.07749 4.28165L6.67916 7.03832C6.55166 7.16665 4.17916 11.3967 4.17916 11.3967C4.05166 11.59 3.85916 11.8467 3.53832 11.8467H1.29499C1.17601 11.8443 1.06197 11.7986 0.974156 11.7183C0.942497 11.6591 0.925934 11.593 0.925934 11.5258C0.925934 11.4587 0.942497 11.3925 0.974156 11.3333L3.34582 7.03832L1.80749 4.34665C1.77583 4.28743 1.75927 4.22131 1.75927 4.15415C1.75927 4.08699 1.77583 4.02088 1.80749 3.96165C1.8953 3.88133 2.00934 3.83572 2.12832 3.83332H4.43666H4.43582Z" fill="white"/>
</svg>
