<svg xmlns="http://www.w3.org/2000/svg" width="24" height="24" fill="none" viewBox="0 0 24 24">
  <path fill="#272E41" d="M12 5.5a3.5 3.5 0 1 1 0 7 3.5 3.5 0 0 1 0-7ZM5 8c.56 0 1.08.15 1.53.42-.15 1.43.27 2.85 1.13 3.96A2.997 2.997 0 0 1 2 11a3 3 0 0 1 3-3Zm14 0a3 3 0 0 1 0 6c-1.16 0-2.16-.66-2.66-1.62a5.536 5.536 0 0 0 1.13-3.96c.45-.27.97-.42 1.53-.42ZM5.5 18.25c0-2.07 2.91-3.75 6.5-3.75s6.5 1.68 6.5 3.75V20h-13v-1.75ZM0 20v-1.5c0-1.39 1.89-2.56 4.45-2.9-.59.68-.95 1.62-.95 2.65V20H0Zm24 0h-3.5v-1.75c0-1.03-.36-1.97-.95-2.65 2.56.34 4.45 1.51 4.45 2.9V20Z"/>
</svg>
