<svg xmlns="http://www.w3.org/2000/svg" width="24" height="24" fill="none" viewBox="0 0 24 24">
  <g clip-path="url(#a)">
    <path fill="#272E41" d="M22 3H2a2 2 0 0 0-2 2v14a2 2 0 0 0 2 2h20a2 2 0 0 0 2-2V5a2 2 0 0 0-2-2ZM8 6a3 3 0 1 1 0 6 3 3 0 0 1 0-6Zm6 12H2v-1c0-2 4-3.1 6-3.1s6 1.1 6 3.1v1Zm3.85-4h1.65l1.5 2-2 2c-1.3-1-2.27-2.39-2.72-4-.18-.64-.28-1.31-.28-2s.1-1.36.28-2c.45-1.62 1.42-3 2.72-4l2 2-1.5 2h-1.65c-.22.63-.35 1.3-.35 2s.13 1.37.35 2Z"/>
  </g>
  <defs>
    <clipPath id="a">
      <path fill="#fff" d="M0 0h24v24H0z"/>
    </clipPath>
  </defs>
</svg>
