<svg xmlns="http://www.w3.org/2000/svg" width="24" height="24" fill="none" viewBox="0 0 24 24">
  <path fill="#272E41" fill-rule="evenodd" d="M20.68 16.723c0 .997-.899.633-1.251.633h-1.306c.867 0 .617-.002.377-.005v1.574H3.875c-.018.312-.03 1.342.513 1.941.276.305 1.192.46 1.17.46H17.41a.073.073 0 0 0 .074-.074v-.847H5.498v-.56l13.002.01v1.397c0 .35-.738.634-1.09.634H5.559c-.669 0-1.205-.218-1.593-.647-.787-.87-.666-2.28-.649-2.436V1.883H18.49V3.12c.25-.004.5-.006-.367-.006h1.305c.353 0 1.252.285 1.252.634v3.74c0 .167-.48.326-.793.442.313.531.793.275.793.442v3.741c0 .162-.28.318-.787.434.507.117.787.272.787.435v3.742ZM11.541 6.538c-2.598 0-4.272 2.066-4.272 4.456 0 2.227 1.628 3.62 3.548 3.62.784 0 1.439-.128 2.083-.464l-.188-.5c-.479.267-1.1.92-1.768.92-1.731 0-3.007-1.709-3.007-3.646 0-2.355 1.604-3.214 3.511-3.214 1.815 0 2.833.568 2.833 2.251 0 1.346-.666 3-1.111 2.88-.539-.12-.68-1.174-.504-2.057l.974-2.099c-.88-.14-1.325-.244-1.829-.244-1.627 0-2.441 1.311-2.441 2.75 0 .916.252 1.461.931 1.461.999 0 1.24-.336 1.651-1.02h.046c-.036.708.397 1.02.867 1.02 1.1 0 2.083-1.02 2.084-2.76 0-1.938-1.37-3.354-3.408-3.354Zm7.962-2.79a.074.074 0 0 0-.075-.075h-1.305c.687 0 .367.033.367.074v3.74c0 .041.32.074-.367.074h1.305a.074.074 0 0 0 .075-.074v-3.74Zm0 4.623a.073.073 0 0 0-.075-.073h-1.305c.687 0 .367.032.367.073v3.741c0 .04.32.073-.367.073h1.305a.074.074 0 0 0 .075-.073v-3.74Zm0 4.61a.073.073 0 0 0-.075-.073h-1.305c.687 0 .367.032.367.073v3.742c0 .04.32.073-.367.073h1.305a.075.075 0 0 0 .075-.073v-3.742Zm-8.922-.71c.089 0-.772-.616-.772-1.126 0-.955.831-1.585 1.861-1.595.27 0 .469-.449.586-.413l-.156 1.311c-.219.72-.839 1.822-1.519 1.822Z" clip-rule="evenodd"/>
</svg>
