<svg xmlns="http://www.w3.org/2000/svg" width="24" height="24" fill="none" viewBox="0 0 24 24">
  <path fill="#272E41" fill-rule="evenodd" d="M21.307 6.24c.25 0 .692.338.692.806l-5.948 3.967a.34.34 0 0 1-.152 0l-1.383-.86V6.24h6.79Zm-6.791 5.373v5.317h6.408c.569 0 1.076-.328 1.076-1.111v-6.3s-6.044 3.08-5.83 2.95c0 0-.214.13.13 0l-1.785-.856ZM7.985 9.81c-.43 0-.774.2-1.026.599-.253.398-.38.927-.38 1.584 0 1.036.127 1.195.38 1.581.252.39.584.582.994.582.423 0 .76-.189 1.007-.566.247-.376.371-.261.371-1.57 0-.698-.119-1.24-.36-1.629-.124-.387-.57-.581-.987-.581ZM14.248 2v20L2 19.56V4.254L14.25 2Zm-3.626 9.935c0-1.03-.24-1.86-.72-2.488-.479-.63-.415-.944-1.885-.944-.822 0-1.483.328-1.982.986-.5.658-.747 1.518-.747 2.582 0 1.009.246 1.826.736 2.454.49.627 1.126.941 1.906.941.917 0 1.45-.325 1.947-.972.497-.648.746-1.501.745-2.559Z" clip-rule="evenodd"/>
</svg>
