<svg width="11" height="13" viewBox="0 0 11 13" fill="none" xmlns="http://www.w3.org/2000/svg">
<path d="M10.6413 0.15332C10.7433 0.15332 10.846 0.20532 10.8973 0.256654C10.9225 0.30395 10.9357 0.356724 10.9357 0.41032C10.9357 0.463917 10.9225 0.516691 10.8973 0.563987L6.84599 7.74399L9.40999 12.4613C9.43532 12.5087 9.44857 12.5616 9.44857 12.6153C9.44857 12.669 9.43532 12.7219 9.40999 12.7693C9.33991 12.8334 9.24895 12.8699 9.15399 12.872H7.30733C7.05133 12.872 6.89733 12.6667 6.79466 12.5127L4.17933 7.74332C4.33333 7.53865 8.28199 0.51332 8.28199 0.51332C8.38466 0.308654 8.53866 0.154654 8.79533 0.154654H10.6413V0.15332ZM2.94866 2.66665C3.20533 2.66665 3.35866 2.87199 3.46199 3.02532L4.74333 5.23065C4.64132 5.33332 2.74332 8.71732 2.74332 8.71732C2.64132 8.87199 2.48733 9.07732 2.23066 9.07732H0.435992C0.340808 9.0754 0.249575 9.03891 0.179325 8.97465C0.153998 8.92727 0.140747 8.87438 0.140747 8.82065C0.140747 8.76693 0.153998 8.71403 0.179325 8.66665L2.07666 5.23065L0.845992 3.07732C0.820664 3.02994 0.807414 2.97705 0.807414 2.92332C0.807414 2.8696 0.820664 2.8167 0.845992 2.76932C0.916242 2.70507 1.00747 2.66857 1.10266 2.66665H2.94933H2.94866Z" fill="#04595B"/>
</svg>
