<svg width="14" height="14" viewBox="0 0 14 14" fill="none" xmlns="http://www.w3.org/2000/svg">
<path d="M7.00001 0.359985C3.33334 0.359985 0.333344 3.35332 0.333344 7.03999C0.333344 10.3733 2.77334 13.14 5.96001 13.64V8.97332H4.26668V7.03999H5.96001V5.56665C5.96001 3.89332 6.95334 2.97332 8.48001 2.97332C9.20668 2.97332 9.96668 3.09999 9.96668 3.09999V4.74665H9.12668C8.30001 4.74665 8.04001 5.25999 8.04001 5.78665V7.03999H9.89334L9.59334 8.97332H8.04001V13.64C9.61097 13.3919 11.0415 12.5903 12.0733 11.38C13.1051 10.1697 13.6702 8.63041 13.6667 7.03999C13.6667 3.35332 10.6667 0.359985 7.00001 0.359985Z" fill="#344F8D"/>
</svg>
