<svg width="16" height="10" viewBox="0 0 16 10" fill="none" xmlns="http://www.w3.org/2000/svg">
<path d="M15.3333 4.33337H14V3.00004H12.6667V4.33337H11.3333V5.66671H12.6667V7.00004H14V5.66671H15.3333V4.33337ZM5.33332 4.33337V5.93337H7.99999C7.86666 6.60004 7.19999 7.93337 5.33332 7.93337C3.73332 7.93337 2.46666 6.60004 2.46666 5.00004C2.46666 3.40004 3.73332 2.06671 5.33332 2.06671C6.26666 2.06671 6.86666 2.46671 7.19999 2.80004L8.46666 1.60004C7.66666 0.800041 6.59999 0.333374 5.33332 0.333374C2.73332 0.333374 0.666656 2.40004 0.666656 5.00004C0.666656 7.60004 2.73332 9.66671 5.33332 9.66671C7.99999 9.66671 9.79999 7.80004 9.79999 5.13337C9.79999 4.80004 9.79999 4.60004 9.73332 4.33337H5.33332Z" fill="#D63B30"/>
</svg>
