<svg width="15" height="18" viewBox="0 0 15 18" fill="none" xmlns="http://www.w3.org/2000/svg">
<path d="M13.0917 15.25C12.4 16.2833 11.6667 17.2917 10.55 17.3083C9.43333 17.3333 9.075 16.65 7.80833 16.65C6.53333 16.65 6.14166 17.2917 5.08333 17.3333C3.99166 17.375 3.16666 16.2333 2.46666 15.225C1.04166 13.1667 -0.0500048 9.37499 1.41666 6.82499C2.14166 5.55832 3.44166 4.75832 4.85 4.73332C5.91666 4.71666 6.93333 5.45832 7.59166 5.45832C8.24166 5.45832 9.475 4.56666 10.7667 4.69999C11.3083 4.72499 12.825 4.91666 13.8 6.34999C13.725 6.39999 11.9917 7.41666 12.0083 9.52499C12.0333 12.0417 14.2167 12.8833 14.2417 12.8917C14.2167 12.95 13.8917 14.0917 13.0917 15.25ZM8.33333 1.91666C8.94166 1.22499 9.95 0.69999 10.7833 0.666656C10.8917 1.64166 10.5 2.62499 9.91666 3.32499C9.34166 4.03332 8.39166 4.58332 7.45833 4.50832C7.33333 3.54999 7.8 2.54999 8.33333 1.91666Z" fill="#272E41"/>
</svg>
