<svg width="17" height="18" viewBox="0 0 17 18" fill="none" xmlns="http://www.w3.org/2000/svg">
<path d="M8.50002 0.700012C3.91669 0.700012 0.166687 4.44168 0.166687 9.05001C0.166687 13.2167 3.21669 16.675 7.20002 17.3V11.4667H5.08335V9.05001H7.20002V7.20835C7.20002 5.11668 8.44169 3.96668 10.35 3.96668C11.2584 3.96668 12.2084 4.12501 12.2084 4.12501V6.18335H11.1584C10.125 6.18335 9.80002 6.82501 9.80002 7.48335V9.05001H12.1167L11.7417 11.4667H9.80002V17.3C11.7637 16.9899 13.5519 15.9879 14.8416 14.4751C16.1314 12.9622 16.8378 11.038 16.8334 9.05001C16.8334 4.44168 13.0834 0.700012 8.50002 0.700012Z" fill="#2862F6"/>
</svg>
