<svg width="17" height="18" viewBox="0 0 17 18" fill="none" xmlns="http://www.w3.org/2000/svg">
<path d="M16.4792 9.1875C16.4792 8.63889 16.4306 8.11806 16.3472 7.61111H8.5V10.7431H12.9931C12.7917 11.7708 12.2014 12.6389 11.3264 13.2292V15.3125H14.0069C15.5764 13.8611 16.4792 11.7222 16.4792 9.1875Z" fill="#4285F4"/>
<path d="M8.5 17.3334C10.75 17.3334 12.6319 16.5834 14.0069 15.3125L11.3264 13.2292C10.5764 13.7292 9.625 14.0347 8.5 14.0347C6.32639 14.0347 4.48611 12.5695 3.82639 10.5903H1.0625V12.7361C2.43056 15.4584 5.24306 17.3334 8.5 17.3334Z" fill="#34A853"/>
<path d="M3.82641 10.5903C3.6528 10.0903 3.56252 9.55561 3.56252 9.00006C3.56252 8.4445 3.65974 7.90978 3.82641 7.40978V5.26395H1.06252C0.493075 6.38895 0.166687 7.65283 0.166687 9.00006C0.166687 10.3473 0.493075 11.6112 1.06252 12.7362L3.82641 10.5903Z" fill="#FBBC05"/>
<path d="M8.5 3.96527C9.72917 3.96527 10.8264 4.38888 11.6944 5.21527L14.0694 2.84027C12.6319 1.49305 10.75 0.666656 8.5 0.666656C5.24306 0.666656 2.43056 2.54166 1.0625 5.26388L3.82639 7.40971C4.48611 5.43055 6.32639 3.96527 8.5 3.96527Z" fill="#EA4335"/>
</svg>
