<svg width="24" height="24" viewBox="0 0 24 24" fill="none" xmlns="http://www.w3.org/2000/svg">
<path fill-rule="evenodd" clip-rule="evenodd" d="M21.3069 6.24073C21.5569 6.24073 21.999 6.57763 21.999 7.04649L16.0508 11.0133C16.0138 11.0253 15.9348 11.0243 15.8988 11.0133L14.5155 10.1526V6.24073H21.3069ZM14.5155 11.6131V16.9295H20.9238C21.4929 16.9295 22 16.6016 22 15.8189V9.51874C22 9.51874 15.9558 12.5988 16.1698 12.4699C16.1698 12.4699 15.9558 12.5988 16.2999 12.4699L14.5155 11.6131ZM7.9852 9.80866C7.55511 9.80866 7.21204 10.0086 6.95999 10.4075C6.70694 10.8064 6.57992 11.3352 6.57992 11.992C6.57992 13.0277 6.70694 13.1866 6.95999 13.5735C7.21204 13.9624 7.54411 14.1554 7.95419 14.1554C8.37728 14.1554 8.71334 13.9664 8.96139 13.5895C9.20844 13.2126 9.33247 13.3276 9.33247 12.019C9.33247 11.3212 9.21344 10.7784 8.97139 10.3905C8.84837 10.0026 8.40228 9.80866 7.9852 9.80866ZM14.2495 2V22L2 19.5597V4.25432L14.2495 2ZM10.6227 11.935C10.6227 10.9043 10.3827 10.0756 9.90358 9.44677C9.42449 8.81695 9.4885 8.50305 8.0182 8.50305C7.19604 8.50305 6.53491 8.83095 6.03581 9.48875C5.53671 10.1466 5.28866 11.0073 5.28866 12.071C5.28866 13.0797 5.53471 13.8974 6.02481 14.5252C6.5159 15.1521 7.15103 15.466 7.93119 15.466C8.84837 15.466 9.38048 15.1411 9.87758 14.4943C10.3747 13.8464 10.6237 12.9927 10.6227 11.935Z" fill="#272E41"/>
</svg>
