<svg width="19" height="15" viewBox="0 0 19 15" fill="none" xmlns="http://www.w3.org/2000/svg">
<path d="M18.2167 2.00001C17.575 2.29168 16.8833 2.48334 16.1667 2.57501C16.9 2.13334 17.4667 1.43334 17.7333 0.591677C17.0417 1.00834 16.275 1.30001 15.4667 1.46668C14.8083 0.75001 13.8833 0.333344 12.8333 0.333344C10.875 0.333344 9.27499 1.93334 9.27499 3.90834C9.27499 4.19168 9.30833 4.46668 9.36666 4.72501C6.39999 4.57501 3.75833 3.15001 1.99999 0.991677C1.69166 1.51668 1.51666 2.13334 1.51666 2.78334C1.51666 4.02501 2.14166 5.12501 3.10833 5.75001C2.51666 5.75001 1.96666 5.58334 1.48333 5.33334C1.48333 5.33334 1.48333 5.33334 1.48333 5.35834C1.48333 7.09168 2.71666 8.54168 4.34999 8.86668C4.04999 8.95001 3.73333 8.99168 3.40833 8.99168C3.18333 8.99168 2.95833 8.96668 2.74166 8.92501C3.19166 10.3333 4.49999 11.3833 6.07499 11.4083C4.85833 12.375 3.31666 12.9417 1.63333 12.9417C1.34999 12.9417 1.06666 12.925 0.783325 12.8917C2.36666 13.9083 4.24999 14.5 6.26666 14.5C12.8333 14.5 16.4417 9.05001 16.4417 4.32501C16.4417 4.16668 16.4417 4.01668 16.4333 3.85834C17.1333 3.35834 17.7333 2.72501 18.2167 2.00001Z" fill="#00ABF0"/>
</svg>
