<svg width="24" height="24" viewBox="0 0 24 24" fill="none" xmlns="http://www.w3.org/2000/svg">
<path d="M20.462 3.22998C20.615 3.22998 20.769 3.30798 20.846 3.38498C20.8838 3.45593 20.9036 3.53509 20.9036 3.61548C20.9036 3.69588 20.8838 3.77504 20.846 3.84598L14.769 14.616L18.615 21.692C18.653 21.7631 18.6729 21.8424 18.6729 21.923C18.6729 22.0036 18.653 22.0829 18.615 22.154C18.5099 22.2501 18.3734 22.3049 18.231 22.308H15.461C15.077 22.308 14.846 22 14.692 21.769L10.769 14.615C11 14.308 16.923 3.76998 16.923 3.76998C17.077 3.46298 17.308 3.23198 17.693 3.23198H20.462V3.22998ZM8.923 6.99998C9.308 6.99998 9.538 7.30798 9.693 7.53798L11.615 10.846C11.462 11 8.615 16.076 8.615 16.076C8.462 16.308 8.231 16.616 7.846 16.616H5.154C5.01122 16.6131 4.87437 16.5584 4.769 16.462C4.73101 16.3909 4.71113 16.3116 4.71113 16.231C4.71113 16.1504 4.73101 16.0711 4.769 16L7.615 10.846L5.769 7.61598C5.73101 7.54491 5.71113 7.46557 5.71113 7.38498C5.71113 7.30439 5.73101 7.22505 5.769 7.15398C5.87437 7.0576 6.01122 7.00286 6.154 6.99998H8.924H8.923Z" fill="#272E41"/>
</svg>
