<svg xmlns="http://www.w3.org/2000/svg" width="24" height="24" fill="none" viewBox="0 0 24 24">
  <path fill="#272E41" fill-rule="evenodd" d="M14.179 14.661c1.944.945 3.985 2.681 4.816 4.688-1.066.864-1.205.972-2.458 2.026-1.207-2.324-2.67-3.605-4.668-4.118-1.174 1.513-3.084 3.28-6.072 4.095-.666-1.41-.847-1.808-1.297-2.871 2.39-.554 3.26-1.31 4.43-3.55-.084-2.72.615-5.394 2.36-6.464.906.297 2.405 1.192 2.832 1.327-.06.276.138.59.87.75.556.122 1.862.313 3.123-.83.774 1.188 1.385 2.337 1.385 2.337s-2.413 2.397-5.27 1.644c-.019.373-.033.491-.051.966Zm.339-6.703c-1.46 0-2.68-1.193-2.68-2.666 0-1.473 1.22-2.667 2.68-2.667 1.459 0 2.698 1.194 2.698 2.667 0 1.473-1.24 2.666-2.698 2.666Z" clip-rule="evenodd"/>
</svg>
