<svg width="24" height="9" viewBox="0 0 24 9" fill="none" xmlns="http://www.w3.org/2000/svg">
<path d="M3.312 8.144C2.8 8.144 2.288 8.048 1.776 7.856C1.272 7.664 0.82 7.384 0.42 7.016L1.428 5.804C1.708 6.044 2.02 6.24 2.364 6.392C2.708 6.544 3.04 6.62 3.36 6.62C3.728 6.62 4 6.552 4.176 6.416C4.36 6.28 4.452 6.096 4.452 5.864C4.452 5.616 4.348 5.436 4.14 5.324C3.94 5.204 3.668 5.072 3.324 4.928L2.304 4.496C2.04 4.384 1.788 4.236 1.548 4.052C1.308 3.86 1.112 3.624 0.96 3.344C0.808 3.064 0.732 2.736 0.732 2.36C0.732 1.928 0.848 1.536 1.08 1.184C1.32 0.832 1.648 0.552 2.064 0.344C2.488 0.136 2.972 0.0319996 3.516 0.0319996C3.964 0.0319996 4.412 0.12 4.86 0.296C5.308 0.472 5.7 0.728 6.036 1.064L5.136 2.18C4.88 1.98 4.624 1.828 4.368 1.724C4.112 1.612 3.828 1.556 3.516 1.556C3.212 1.556 2.968 1.62 2.784 1.748C2.608 1.868 2.52 2.04 2.52 2.264C2.52 2.504 2.632 2.684 2.856 2.804C3.088 2.924 3.372 3.052 3.708 3.188L4.716 3.596C5.188 3.788 5.564 4.052 5.844 4.388C6.124 4.724 6.264 5.168 6.264 5.72C6.264 6.152 6.148 6.552 5.916 6.92C5.684 7.288 5.348 7.584 4.908 7.808C4.468 8.032 3.936 8.144 3.312 8.144ZM8.19197 8V0.176H10.124L11.384 3.656C11.464 3.88 11.54 4.116 11.612 4.364C11.684 4.612 11.76 4.856 11.84 5.096H11.888C11.968 4.856 12.04 4.612 12.104 4.364C12.176 4.116 12.252 3.88 12.332 3.656L13.568 0.176H15.488V8H13.88V5.132C13.88 4.876 13.892 4.592 13.916 4.28C13.948 3.96 13.98 3.64 14.012 3.32C14.052 3 14.084 2.716 14.108 2.468H14.06L13.424 4.328L12.308 7.316H11.336L10.22 4.328L9.59597 2.468H9.54797C9.57997 2.716 9.61197 3 9.64397 3.32C9.67597 3.64 9.70397 3.96 9.72797 4.28C9.75997 4.592 9.77597 4.876 9.77597 5.132V8H8.19197ZM20.3206 8.144C19.8086 8.144 19.2966 8.048 18.7846 7.856C18.2806 7.664 17.8286 7.384 17.4286 7.016L18.4366 5.804C18.7166 6.044 19.0286 6.24 19.3726 6.392C19.7166 6.544 20.0486 6.62 20.3686 6.62C20.7366 6.62 21.0086 6.552 21.1846 6.416C21.3686 6.28 21.4606 6.096 21.4606 5.864C21.4606 5.616 21.3566 5.436 21.1486 5.324C20.9486 5.204 20.6766 5.072 20.3326 4.928L19.3126 4.496C19.0486 4.384 18.7966 4.236 18.5566 4.052C18.3166 3.86 18.1206 3.624 17.9686 3.344C17.8166 3.064 17.7406 2.736 17.7406 2.36C17.7406 1.928 17.8566 1.536 18.0886 1.184C18.3286 0.832 18.6566 0.552 19.0726 0.344C19.4966 0.136 19.9806 0.0319996 20.5246 0.0319996C20.9726 0.0319996 21.4206 0.12 21.8686 0.296C22.3166 0.472 22.7086 0.728 23.0446 1.064L22.1446 2.18C21.8886 1.98 21.6326 1.828 21.3766 1.724C21.1206 1.612 20.8366 1.556 20.5246 1.556C20.2206 1.556 19.9766 1.62 19.7926 1.748C19.6166 1.868 19.5286 2.04 19.5286 2.264C19.5286 2.504 19.6406 2.684 19.8646 2.804C20.0966 2.924 20.3806 3.052 20.7166 3.188L21.7246 3.596C22.1966 3.788 22.5726 4.052 22.8526 4.388C23.1326 4.724 23.2726 5.168 23.2726 5.72C23.2726 6.152 23.1566 6.552 22.9246 6.92C22.6926 7.288 22.3566 7.584 21.9166 7.808C21.4766 8.032 20.9446 8.144 20.3206 8.144Z" fill="#32A3FD"/>
</svg>
