<svg width="41" height="31" viewBox="0 0 41 31" fill="none" xmlns="http://www.w3.org/2000/svg">
<path d="M22.0024 6.5202C28.3394 6.5202 31.9344 10.7142 32.4574 15.7802H32.6174C36.6954 15.7802 40.0014 19.0782 40.0014 23.1452C40.0014 27.2132 36.6954 30.5102 32.6174 30.5102H11.3874C7.30943 30.5102 4.00343 27.2132 4.00343 23.1452C4.00343 19.1592 7.17944 15.9122 11.1434 15.7842L11.5484 15.7802C12.0744 10.6812 15.6654 6.5202 22.0024 6.5202ZM22.0024 9.0152C17.7424 9.0152 14.0274 12.4632 14.0274 17.2252C14.0274 17.9802 13.3714 18.5722 12.6204 18.5722H11.1994C8.60443 18.5722 6.50143 20.6862 6.50143 23.2942C6.50143 25.9012 8.60444 28.0152 11.1984 28.0152H32.8044C35.3994 28.0152 37.5014 25.9012 37.5014 23.2942C37.5014 20.6862 35.3994 18.5722 32.8044 18.5722H31.3844C30.6324 18.5722 29.9764 17.9802 29.9764 17.2262C29.9764 12.4022 26.2624 9.0152 22.0014 9.0152H22.0024ZM15.9994 0.502198C17.5333 0.501462 19.0442 0.874852 20.4011 1.59C21.758 2.30514 22.9201 3.34046 23.7864 4.6062C22.6451 4.47126 21.4921 4.46556 20.3494 4.5892C19.1419 3.54235 17.5976 2.96547 15.9994 2.9642C12.7154 2.9642 9.91644 5.3872 9.35644 8.6602L9.04244 10.4902C9.00277 10.723 8.88201 10.9342 8.70155 11.0865C8.52109 11.2387 8.29256 11.3222 8.05644 11.3222H6.10943C4.04643 11.3222 2.37443 13.0322 2.37443 15.1432C2.37443 16.2492 2.83443 17.2452 3.56743 17.9432C3.13257 18.5937 2.78178 19.2966 2.52344 20.0352C1.44641 19.1939 0.658814 18.0375 0.27052 16.7272C-0.117775 15.4169 -0.0874049 14.018 0.357393 12.7258C0.802191 11.4336 1.63923 10.3124 2.75176 9.51871C3.86428 8.72499 5.1968 8.29832 6.56344 8.2982H6.70544C7.09175 6.11386 8.23495 4.13532 9.93445 2.70975C11.634 1.28417 13.7812 0.502608 15.9994 0.502198Z" fill="white"/>
</svg>
